<svg xmlns="http://www.w3.org/2000/svg" xmlns:xlink="http://www.w3.org/1999/xlink" width="1024" zoomAndPan="magnify" viewBox="0 0 768 767.999994" height="1024" preserveAspectRatio="xMidYMid meet" version="1.0"><defs><clipPath id="b3dc857c13"><path d="M 0.828125 -9.742188 C -6.53125 -9.742188 -12.515625 -3.757812 -12.515625 3.617188 L -12.515625 763.296875 C -12.515625 770.640625 -6.546875 776.640625 0.828125 776.640625 L 765.210938 776.640625 C 772.574219 776.640625 778.558594 770.640625 778.558594 763.296875 L 778.558594 3.601562 C 778.558594 -3.773438 772.589844 -9.757812 765.210938 -9.757812 Z M 765.210938 794.398438 L 0.828125 794.398438 C -16.328125 794.398438 -30.289062 780.453125 -30.289062 763.296875 L -30.289062 3.601562 C -30.289062 -13.550781 -16.328125 -27.515625 0.828125 -27.515625 L 765.210938 -27.515625 C 782.382812 -27.515625 796.328125 -13.550781 796.328125 3.601562 L 796.328125 763.296875 C 796.328125 780.46875 782.402344 794.414062 765.210938 794.414062 " clip-rule="nonzero"/></clipPath><clipPath id="6b319a2076"><path d="M 311.382812 583.140625 L 729 583.140625 L 729 618.609375 L 311.382812 618.609375 Z M 311.382812 583.140625 " clip-rule="nonzero"/></clipPath><clipPath id="3b1c3dcc17"><path d="M 714.285156 583.707031 L 326.007812 583.707031 L 311.441406 618.542969 L 728.851562 618.542969 Z M 714.285156 583.707031 " clip-rule="nonzero"/></clipPath><clipPath id="c9a77a8230"><path d="M 337 342.675781 L 703.363281 342.675781 L 703.363281 572.640625 L 337 572.640625 Z M 337 342.675781 " clip-rule="nonzero"/></clipPath><clipPath id="5784510413"><path d="M 589.507812 372.535156 C 589.941406 391.816406 569.980469 415.421875 561.105469 439.597656 C 549.367188 471.628906 540.648438 505.257812 540.648438 539.183594 L 533.214844 539.183594 C 533.292969 505.011719 541.636719 470.238281 553.195312 438.011719 C 561.554688 414.667969 597.917969 375.636719 572.167969 358.15625 C 559.101562 349.300781 538.828125 343.054688 522.449219 342.699219 L 520.902344 342.714844 C 519.390625 342.714844 518.589844 342.664062 517.851562 342.699219 C 501.480469 343.035156 481.191406 349.285156 468.125 358.15625 C 442.378906 375.621094 478.738281 414.652344 487.101562 438.011719 C 498.65625 470.238281 507 505.011719 507.078125 539.183594 L 499.828125 539.183594 C 499.828125 505.242188 490.882812 471.703125 479.371094 439.597656 C 471.796875 418.476562 449.507812 392.25 450.96875 372.535156 C 385.757812 404.378906 340.722656 478.769531 337.101562 572.476562 L 703.179688 572.476562 C 699.554688 478.785156 654.722656 404.378906 589.507812 372.535156 " clip-rule="nonzero"/></clipPath><clipPath id="6c7cdb49c4"><path d="M 40.652344 106.445312 L 659 106.445312 L 659 533.796875 L 40.652344 533.796875 Z M 40.652344 106.445312 " clip-rule="nonzero"/></clipPath><clipPath id="920195d3e1"><path d="M 335.496094 189.964844 L 378.675781 238.085938 C 378.230469 238.683594 378.015625 239.167969 378.152344 239.332031 L 392.992188 255.839844 C 391.882812 257.492188 391.589844 259.21875 392.453125 260.191406 L 450.308594 324.601562 C 448.902344 325.191406 447.625 326.035156 446.480469 327.117188 C 446.480469 327.117188 443.367188 330.136719 440.527344 332.871094 C 427.519531 318.617188 349.550781 221.238281 329.199219 197.847656 L 335.496094 189.980469 M 154.40625 289.675781 C 152.183594 287.714844 150.289062 286.03125 150.289062 286.03125 L 149.578125 285.460938 L 177.378906 247.695312 C 177.792969 247.914062 178.136719 248.007812 178.226562 247.867188 L 186.804688 236.449219 C 187.976562 236.957031 189.105469 236.914062 189.613281 236.246094 L 233.660156 177.625 C 236.046875 180.152344 238.425781 182.453125 240.367188 184.148438 C 226.375 200.890625 169.1875 271.839844 154.40625 289.65625 M 397.882812 385.769531 C 429.832031 350.132812 473.726562 328.132812 522.183594 328.132812 C 577.183594 328.132812 626.320312 356.472656 658.761719 400.953125 L 658.578125 253.496094 C 659.007812 244.132812 655.214844 228.273438 645.125 227.546875 L 468.542969 228.90625 C 460.023438 229.226562 462.789062 237.113281 462.539062 250.609375 L 463.867188 301.585938 L 411.414062 243.144531 C 410.242188 241.882812 407.511719 242.464844 405.273438 244.503906 L 404.6875 245.023438 L 390.015625 228.703125 C 389.796875 228.445312 388.9375 228.871094 387.902344 229.644531 L 340.988281 177.410156 C 342.328125 175.203125 343.148438 173.304688 343.117188 172.085938 L 342.484375 168.167969 C 341.667969 165.34375 340.125 162.816406 337.996094 160.871094 L 296.355469 128.253906 C 297.144531 119.507812 297.371094 112.847656 296.449219 111.71875 C 294.074219 108.863281 290.847656 107.367188 287.515625 107.167969 C 283.089844 105.734375 278.027344 106.792969 274.25 110.574219 L 227.484375 150.671875 C 225.453125 152.726562 224.015625 155.347656 223.335938 158.167969 L 222.875 162.121094 C 222.875 162.644531 223.042969 163.304688 223.371094 164.046875 L 176.5 226.421875 C 175.839844 227.300781 176.542969 228.964844 178.105469 230.136719 L 178.519531 230.449219 L 170.035156 241.753906 C 169.898438 241.910156 170.28125 242.402344 170.902344 242.960938 L 141.183594 282.5 C 139.210938 282.144531 137.175781 282.238281 135.171875 282.871094 C 130.945312 284.199219 127.46875 287.636719 125.851562 292.113281 L 105.164062 349.238281 C 91.925781 346.816406 74.433594 355.796875 70.296875 365.839844 C 70.296875 365.839844 41.773438 434.90625 41.832031 436.3125 C 41.046875 440.925781 39.769531 450.523438 41.789062 454.546875 C 54.65625 503.824219 146.523438 533.027344 146.523438 533.027344 L 149.996094 521.363281 L 123.632812 504.363281 C 123.632812 504.363281 129.769531 486.082031 134.292969 475.097656 L 166.566406 396.816406 C 170.683594 386.792969 172.875 378.027344 164.914062 373.121094 L 247.140625 249.144531 L 247.4375 249.902344 L 277.488281 204.578125 C 277.519531 204.667969 277.53125 204.777344 277.550781 204.882812 L 280.003906 209.898438 L 397.378906 385.617188 Z M 397.882812 385.769531 " clip-rule="nonzero"/></clipPath></defs><g clip-path="url(#b3dc857c13)"><rect x="-76.8" width="921.6" fill="#ffffff" y="-76.799999" height="921.599993" fill-opacity="1"/></g><g clip-path="url(#6b319a2076)"><g clip-path="url(#3b1c3dcc17)"><rect x="-76.8" width="921.6" fill="#ffffff" y="-76.799999" height="921.599993" fill-opacity="1"/></g></g><g clip-path="url(#c9a77a8230)"><g clip-path="url(#5784510413)"><rect x="-76.8" width="921.6" fill="#ffffff" y="-76.799999" height="921.599993" fill-opacity="1"/></g></g><g clip-path="url(#6c7cdb49c4)"><g clip-path="url(#920195d3e1)"><rect x="-76.8" width="921.6" fill="#ffffff" y="-76.799999" height="921.599993" fill-opacity="1"/></g></g></svg>