<svg xmlns="http://www.w3.org/2000/svg" xmlns:xlink="http://www.w3.org/1999/xlink" width="1024" zoomAndPan="magnify" viewBox="0 0 768 767.999994" height="1024" preserveAspectRatio="xMidYMid meet" version="1.0"><defs><clipPath id="6812f4e527"><path d="M -0.105469 -10.027344 C -7.492188 -10.027344 -13.5 -4.019531 -13.5 3.363281 L -13.5 765.738281 C -13.5 773.109375 -7.507812 779.117188 -0.105469 779.117188 L 766.980469 779.117188 C 774.367188 779.117188 780.375 773.09375 780.375 765.738281 L 780.375 3.378906 C 780.375 -4.007812 774.367188 -10.015625 766.980469 -10.015625 Z M 766.980469 796.957031 L -0.105469 796.957031 C -17.308594 796.957031 -31.320312 782.957031 -31.320312 765.738281 L -31.320312 3.378906 C -31.320312 -13.851562 -17.308594 -27.847656 -0.105469 -27.847656 L 766.980469 -27.847656 C 784.214844 -27.847656 798.210938 -13.851562 798.210938 3.378906 L 798.210938 765.738281 C 798.210938 782.957031 784.226562 796.972656 766.980469 796.972656 " clip-rule="nonzero"/></clipPath><clipPath id="aa83d01986"><path d="M 85.722656 67 L 686.402344 67 L 686.402344 704.285156 L 85.722656 704.285156 Z M 85.722656 67 " clip-rule="nonzero"/></clipPath><clipPath id="4971a8af7a"><path d="M 686.21875 370.460938 L 620.507812 362.457031 C 614.5 328.546875 601.320312 297.085938 582.542969 269.710938 L 623.914062 217.917969 L 574.546875 168.042969 L 522.34375 208.90625 C 516.347656 204.695312 510.105469 200.824219 503.730469 197.171875 L 503.730469 120.0625 L 521.222656 120.0625 C 530.871094 120.0625 538.765625 112.164062 538.765625 102.519531 L 538.765625 84.980469 C 538.765625 75.332031 530.871094 67.4375 521.222656 67.4375 L 451.101562 67.4375 L 451.101562 230.503906 C 598.023438 283.429688 614.636719 488.121094 476.851562 565.789062 C 331.878906 647.511719 163.246094 511.066406 207.421875 353.925781 C 224.746094 292.242188 266.847656 249.289062 320.976562 230.042969 L 320.976562 67.4375 L 250.839844 67.4375 C 241.191406 67.4375 233.292969 75.332031 233.292969 84.980469 L 233.292969 102.519531 C 233.292969 112.164062 241.191406 120.0625 250.839844 120.0625 L 268.332031 120.0625 L 268.332031 197.183594 C 262.636719 200.4375 257.046875 203.84375 251.65625 207.542969 L 199.847656 166.171875 L 149.992188 215.550781 L 190.851562 267.746094 C 171.792969 294.933594 158.308594 326.273438 151.972656 360.101562 L 86.167969 367.472656 L 85.84375 437.644531 L 151.558594 445.664062 C 157.546875 479.578125 170.742188 511.039062 189.503906 538.414062 L 148.148438 590.21875 L 197.527344 640.0625 L 249.722656 599.214844 C 276.894531 618.261719 308.234375 631.746094 342.082031 638.097656 L 349.449219 703.886719 L 419.625 704.226562 L 427.625 638.496094 C 461.535156 632.507812 492.996094 619.328125 520.371094 600.546875 L 572.164062 641.902344 L 622.039062 592.542969 L 581.179688 540.34375 C 600.222656 513.140625 613.726562 481.820312 620.054688 447.972656 L 685.828125 440.601562 Z M 686.21875 370.460938 " clip-rule="nonzero"/></clipPath><clipPath id="293885bd36"><path d="M 220 370 L 542.785156 370 L 542.785156 564.835938 L 220 564.835938 Z M 220 370 " clip-rule="nonzero"/></clipPath><clipPath id="f156e57363"><path d="M 542.207031 403.503906 C 542.207031 492.242188 470.269531 564.179688 381.53125 564.179688 C 292.796875 564.179688 220.859375 492.242188 220.859375 403.503906 C 220.859375 314.765625 302.054688 434.53125 390.792969 434.53125 C 479.53125 434.53125 542.191406 314.765625 542.191406 403.503906 " clip-rule="nonzero"/></clipPath></defs><g clip-path="url(#6812f4e527)"><rect x="-76.8" width="921.6" fill="#ffffff" y="-76.799999" height="921.599993" fill-opacity="1"/></g><g clip-path="url(#aa83d01986)"><g clip-path="url(#4971a8af7a)"><rect x="-76.8" width="921.6" fill="#ffffff" y="-76.799999" height="921.599993" fill-opacity="1"/></g></g><g clip-path="url(#293885bd36)"><g clip-path="url(#f156e57363)"><rect x="-76.8" width="921.6" fill="#ffffff" y="-76.799999" height="921.599993" fill-opacity="1"/></g></g></svg>