<svg xmlns="http://www.w3.org/2000/svg" xmlns:xlink="http://www.w3.org/1999/xlink" width="1080" zoomAndPan="magnify" viewBox="0 0 810 809.999993" height="1080" preserveAspectRatio="xMidYMid meet" version="1.0"><defs><clipPath id="a0376cef6b"><path d="M 9.347656 11.597656 L 801 11.597656 L 801 799 L 9.347656 799 Z M 9.347656 11.597656 " clip-rule="nonzero"/></clipPath><clipPath id="f9d3937a2b"><path d="M 39.128906 28.601562 C 32.082031 28.601562 26.351562 34.332031 26.351562 41.375 L 26.351562 768.621094 C 26.351562 775.652344 32.066406 781.382812 39.128906 781.382812 L 770.863281 781.382812 C 777.910156 781.382812 783.640625 775.636719 783.640625 768.621094 L 783.640625 41.390625 C 783.640625 34.34375 777.910156 28.613281 770.863281 28.613281 Z M 770.863281 798.398438 L 39.128906 798.398438 C 22.71875 798.398438 9.351562 785.046875 9.351562 768.621094 L 9.351562 41.390625 C 9.351562 24.953125 22.71875 11.601562 39.128906 11.601562 L 770.863281 11.601562 C 787.304688 11.601562 800.65625 24.953125 800.65625 41.390625 L 800.65625 768.621094 C 800.65625 785.046875 787.316406 798.414062 770.863281 798.414062 " clip-rule="nonzero"/></clipPath><clipPath id="76229308f6"><path d="M 121 102 L 694 102 L 694 710 L 121 710 Z M 121 102 " clip-rule="nonzero"/></clipPath><clipPath id="e573135bf6"><path d="M 693.824219 391.558594 L 631.140625 383.921875 C 625.410156 351.574219 612.839844 321.5625 594.925781 295.449219 L 634.390625 246.042969 L 587.300781 198.46875 L 537.5 237.449219 C 531.78125 233.429688 525.828125 229.738281 519.746094 226.253906 L 519.746094 152.699219 L 536.433594 152.699219 C 545.636719 152.699219 553.167969 145.164062 553.167969 135.964844 L 553.167969 119.230469 C 553.167969 110.027344 545.636719 102.496094 536.433594 102.496094 L 469.542969 102.496094 L 469.542969 258.050781 C 609.695312 308.535156 625.542969 503.796875 494.105469 577.882812 C 355.8125 655.839844 194.953125 525.683594 237.089844 375.785156 C 253.617188 316.941406 293.777344 275.96875 345.414062 257.609375 L 345.414062 102.496094 L 278.507812 102.496094 C 269.304688 102.496094 261.769531 110.027344 261.769531 119.230469 L 261.769531 135.964844 C 261.769531 145.164062 269.304688 152.699219 278.507812 152.699219 L 295.195312 152.699219 L 295.195312 226.265625 C 289.761719 229.367188 284.429688 232.617188 279.289062 236.148438 L 229.867188 196.683594 L 182.308594 243.785156 L 221.285156 293.574219 C 203.105469 319.511719 190.242188 349.40625 184.199219 381.675781 L 121.425781 388.707031 L 121.117188 455.644531 L 183.800781 463.296875 C 189.515625 495.644531 202.101562 525.65625 220 551.769531 L 180.550781 601.1875 L 227.652344 648.734375 L 277.441406 609.769531 C 303.363281 627.9375 333.257812 640.800781 365.546875 646.859375 L 372.574219 709.617188 L 439.515625 709.941406 L 447.148438 647.242188 C 479.496094 641.527344 509.507812 628.957031 535.621094 611.039062 L 585.027344 650.492188 L 632.601562 603.40625 L 593.625 553.613281 C 611.792969 527.664062 624.671875 497.785156 630.710938 465.496094 L 693.453125 458.464844 Z M 693.824219 391.558594 " clip-rule="nonzero"/></clipPath><clipPath id="e5a3a9bdbb"><path d="M 249 391 L 557 391 L 557 576.976562 L 249 576.976562 Z M 249 391 " clip-rule="nonzero"/></clipPath><clipPath id="20e984a19b"><path d="M 556.449219 423.078125 C 556.449219 507.726562 487.828125 576.347656 403.179688 576.347656 C 318.53125 576.347656 249.910156 507.726562 249.910156 423.078125 C 249.910156 338.429688 327.363281 452.675781 412.011719 452.675781 C 496.660156 452.675781 556.433594 338.429688 556.433594 423.078125 " clip-rule="nonzero"/></clipPath></defs><g clip-path="url(#a0376cef6b)"><g clip-path="url(#f9d3937a2b)"><path fill="#002f6d" d="M 1.96875 4.214844 L 807.964844 4.214844 L 807.964844 805.785156 L 1.96875 805.785156 Z M 1.96875 4.214844 " fill-opacity="1" fill-rule="nonzero"/></g></g><g clip-path="url(#76229308f6)"><g clip-path="url(#e573135bf6)"><path fill="#002f6d" d="M 1.96875 4.214844 L 807.964844 4.214844 L 807.964844 805.785156 L 1.96875 805.785156 Z M 1.96875 4.214844 " fill-opacity="1" fill-rule="nonzero"/></g></g><g clip-path="url(#e5a3a9bdbb)"><g clip-path="url(#20e984a19b)"><path fill="#002f6d" d="M 1.96875 4.214844 L 807.964844 4.214844 L 807.964844 805.785156 L 1.96875 805.785156 Z M 1.96875 4.214844 " fill-opacity="1" fill-rule="nonzero"/></g></g></svg>