<svg xmlns="http://www.w3.org/2000/svg" xmlns:xlink="http://www.w3.org/1999/xlink" width="1080" zoomAndPan="magnify" viewBox="0 0 810 809.999993" height="1080" preserveAspectRatio="xMidYMid meet" version="1.0"><defs><clipPath id="099a465fa2"><path d="M 8.125 11.839844 L 799 11.839844 L 799 799 L 8.125 799 Z M 8.125 11.839844 " clip-rule="nonzero"/></clipPath><clipPath id="f48dbc8d8d"><path d="M 37.898438 28.847656 C 30.859375 28.847656 25.132812 34.574219 25.132812 41.628906 L 25.132812 768.398438 C 25.132812 775.421875 30.84375 781.164062 37.898438 781.164062 L 769.167969 781.164062 C 776.210938 781.164062 781.9375 775.421875 781.9375 768.398438 L 781.9375 41.613281 C 781.9375 34.558594 776.226562 28.832031 769.167969 28.832031 Z M 769.167969 798.152344 L 37.898438 798.152344 C 21.488281 798.152344 8.128906 784.808594 8.128906 768.398438 L 8.128906 41.613281 C 8.128906 25.203125 21.488281 11.84375 37.898438 11.84375 L 769.167969 11.84375 C 785.597656 11.84375 798.9375 25.203125 798.9375 41.613281 L 798.9375 768.398438 C 798.9375 784.824219 785.613281 798.167969 769.167969 798.167969 " clip-rule="nonzero"/></clipPath><clipPath id="cedeb639b9"><path d="M 335 596.046875 L 735 596.046875 L 735 629.976562 L 335 629.976562 Z M 335 596.046875 " clip-rule="nonzero"/></clipPath><clipPath id="448a84f761"><path d="M 720.449219 596.585938 L 348.992188 596.585938 L 335.058594 629.914062 L 734.382812 629.914062 Z M 720.449219 596.585938 " clip-rule="nonzero"/></clipPath><clipPath id="0aae213e68"><path d="M 359.238281 366 L 710 366 L 710 586 L 359.238281 586 Z M 359.238281 366 " clip-rule="nonzero"/></clipPath><clipPath id="92a504be81"><path d="M 601.078125 394.5625 C 601.492188 413.011719 582.394531 435.59375 573.90625 458.722656 C 562.675781 489.363281 554.335938 521.535156 554.335938 553.992188 L 547.222656 553.992188 C 547.296875 521.300781 555.28125 488.035156 566.335938 457.203125 C 574.335938 434.871094 609.121094 397.53125 584.488281 380.808594 C 571.988281 372.335938 552.59375 366.359375 536.921875 366.019531 L 535.445312 366.035156 C 533.996094 366.035156 533.230469 365.988281 532.523438 366.019531 C 516.863281 366.34375 497.453125 372.320312 484.953125 380.808594 C 460.320312 397.515625 495.105469 434.855469 503.105469 457.203125 C 514.160156 488.035156 522.144531 521.300781 522.21875 553.992188 L 515.28125 553.992188 C 515.28125 521.523438 506.722656 489.4375 495.710938 458.722656 C 488.464844 438.515625 467.140625 413.425781 468.539062 394.5625 C 406.152344 425.027344 363.070312 496.195312 359.605469 585.84375 L 709.824219 585.84375 C 706.355469 496.210938 663.464844 425.027344 601.078125 394.5625 " clip-rule="nonzero"/></clipPath><clipPath id="6ed7029388"><path d="M 76 140 L 667.570312 140 L 667.570312 548.839844 L 76 548.839844 Z M 76 140 " clip-rule="nonzero"/></clipPath><clipPath id="1e4e8cfac7"><path d="M 358.070312 219.902344 L 399.378906 265.9375 C 398.953125 266.511719 398.746094 266.972656 398.878906 267.132812 L 413.074219 282.925781 C 412.011719 284.503906 411.734375 286.15625 412.558594 287.085938 L 467.90625 348.707031 C 466.5625 349.269531 465.339844 350.078125 464.246094 351.113281 C 464.246094 351.113281 461.265625 354.003906 458.550781 356.617188 C 446.105469 342.980469 371.515625 249.820312 352.046875 227.445312 L 358.070312 219.917969 M 184.824219 315.292969 C 182.699219 313.417969 180.886719 311.808594 180.886719 311.808594 L 180.207031 311.261719 L 206.800781 275.132812 C 207.199219 275.339844 207.527344 275.429688 207.613281 275.296875 L 215.820312 264.375 C 216.941406 264.859375 218.019531 264.816406 218.507812 264.179688 L 260.644531 208.097656 C 262.929688 210.515625 265.203125 212.714844 267.0625 214.339844 C 253.675781 230.355469 198.964844 298.230469 184.824219 315.277344 M 417.753906 407.226562 C 448.320312 373.132812 490.3125 352.085938 536.667969 352.085938 C 589.285156 352.085938 636.292969 379.199219 667.332031 421.75 L 667.15625 280.683594 C 667.566406 271.722656 663.9375 256.550781 654.285156 255.855469 L 485.351562 257.15625 C 477.203125 257.464844 479.847656 265.007812 479.609375 277.921875 L 480.878906 326.6875 L 430.699219 270.777344 C 429.578125 269.570312 426.964844 270.128906 424.824219 272.078125 L 424.261719 272.578125 L 410.226562 256.964844 C 410.019531 256.714844 409.195312 257.125 408.207031 257.863281 L 363.324219 207.890625 C 364.605469 205.78125 365.390625 203.964844 365.359375 202.796875 L 364.753906 199.050781 C 363.972656 196.347656 362.496094 193.929688 360.460938 192.070312 L 320.625 160.867188 C 321.378906 152.5 321.597656 146.125 320.714844 145.046875 C 318.441406 142.316406 315.355469 140.882812 312.167969 140.691406 C 307.933594 139.320312 303.089844 140.335938 299.476562 143.953125 L 254.738281 182.3125 C 252.792969 184.277344 251.417969 186.785156 250.769531 189.484375 L 250.328125 193.265625 C 250.328125 193.765625 250.488281 194.398438 250.800781 195.109375 L 205.960938 254.78125 C 205.328125 255.621094 206.003906 257.214844 207.496094 258.335938 L 207.894531 258.632812 L 199.777344 269.449219 C 199.644531 269.597656 200.011719 270.070312 200.605469 270.601562 L 172.175781 308.429688 C 170.289062 308.089844 168.339844 308.179688 166.421875 308.785156 C 162.378906 310.054688 159.054688 313.34375 157.507812 317.625 L 137.714844 372.277344 C 125.050781 369.960938 108.316406 378.550781 104.359375 388.160156 C 104.359375 388.160156 77.070312 454.234375 77.128906 455.578125 C 76.375 459.992188 75.152344 469.171875 77.085938 473.023438 C 89.394531 520.164062 177.285156 548.101562 177.285156 548.101562 L 180.605469 536.945312 L 155.382812 520.679688 C 155.382812 520.679688 161.253906 503.191406 165.582031 492.683594 L 196.457031 417.792969 C 200.398438 408.203125 202.492188 399.816406 194.878906 395.125 L 273.542969 276.519531 L 273.824219 277.242188 L 302.574219 233.882812 C 302.605469 233.96875 302.617188 234.074219 302.632812 234.175781 L 304.980469 238.972656 L 417.269531 407.078125 Z M 417.753906 407.226562 " clip-rule="nonzero"/></clipPath></defs><g clip-path="url(#099a465fa2)"><g clip-path="url(#f48dbc8d8d)"><path fill="#002f6d" d="M 0.75 4.464844 L 806.246094 4.464844 L 806.246094 805.535156 L 0.75 805.535156 Z M 0.75 4.464844 " fill-opacity="1" fill-rule="nonzero"/></g></g><g clip-path="url(#cedeb639b9)"><g clip-path="url(#448a84f761)"><path fill="#002f6d" d="M 0.75 4.464844 L 806.246094 4.464844 L 806.246094 805.535156 L 0.75 805.535156 Z M 0.75 4.464844 " fill-opacity="1" fill-rule="nonzero"/></g></g><g clip-path="url(#0aae213e68)"><g clip-path="url(#92a504be81)"><path fill="#002f6d" d="M 0.75 4.464844 L 806.246094 4.464844 L 806.246094 805.535156 L 0.75 805.535156 Z M 0.75 4.464844 " fill-opacity="1" fill-rule="nonzero"/></g></g><g clip-path="url(#6ed7029388)"><g clip-path="url(#1e4e8cfac7)"><path fill="#002f6d" d="M 0.75 4.464844 L 806.246094 4.464844 L 806.246094 805.535156 L 0.75 805.535156 Z M 0.75 4.464844 " fill-opacity="1" fill-rule="nonzero"/></g></g></svg>