<svg xmlns="http://www.w3.org/2000/svg" xmlns:xlink="http://www.w3.org/1999/xlink" width="1024" zoomAndPan="magnify" viewBox="0 0 768 767.999994" height="1024" preserveAspectRatio="xMidYMid meet" version="1.0"><defs><clipPath id="64bf896e9b"><path d="M 2.457031 -7.40625 C -4.875 -7.40625 -10.839844 -1.4375 -10.839844 5.914062 L -10.839844 763.199219 C -10.839844 770.523438 -4.894531 776.5 2.457031 776.5 L 764.433594 776.5 C 771.765625 776.5 777.734375 770.523438 777.734375 763.199219 L 777.734375 5.914062 C 777.734375 -1.421875 771.785156 -7.40625 764.433594 -7.40625 Z M 764.433594 794.210938 L 2.457031 794.210938 C -14.632812 794.210938 -28.550781 780.308594 -28.550781 763.199219 L -28.550781 5.914062 C -28.550781 -11.195312 -14.632812 -25.113281 2.457031 -25.113281 L 764.433594 -25.113281 C 781.554688 -25.113281 795.441406 -11.195312 795.441406 5.914062 L 795.441406 763.199219 C 795.441406 780.308594 781.554688 794.210938 764.433594 794.210938 " clip-rule="nonzero"/></clipPath><clipPath id="312f1b8324"><path d="M 104 148.269531 L 658 148.269531 L 658 690.261719 L 104 690.261719 Z M 104 148.269531 " clip-rule="nonzero"/></clipPath><clipPath id="6a50ee67e7"><path d="M 463.554688 149.59375 L 463.554688 229.972656 C 533.992188 261.921875 582.976562 332.871094 582.976562 415.238281 C 582.976562 527.519531 491.945312 618.566406 379.648438 618.566406 C 267.347656 618.566406 176.332031 527.519531 176.332031 415.238281 C 176.332031 330.679688 227.949219 258.164062 301.410156 227.507812 L 301.410156 148.808594 C 187.585938 183.070312 104.675781 288.699219 104.675781 413.664062 C 104.675781 566.394531 228.492188 690.21875 381.234375 690.21875 C 533.976562 690.21875 657.773438 566.40625 657.773438 413.664062 C 657.773438 289.605469 576.085938 184.628906 463.554688 149.578125 " clip-rule="nonzero"/></clipPath><clipPath id="de6b765706"><path d="M 240 71.582031 L 525 71.582031 L 525 557 L 240 557 Z M 240 71.582031 " clip-rule="nonzero"/></clipPath><clipPath id="2e43f3b074"><path d="M 381.679688 520.167969 C 323.992188 520.167969 277.242188 473.421875 277.242188 415.730469 C 277.242188 372.480469 303.519531 335.378906 341.003906 319.523438 L 341.003906 398.589844 C 341.003906 406.882812 347.785156 413.679688 356.097656 413.679688 L 408.882812 413.679688 C 417.179688 413.679688 423.976562 406.898438 423.976562 398.589844 L 423.976562 320.214844 C 460.578125 336.445312 486.117188 373.097656 486.117188 415.730469 C 486.117188 473.421875 439.359375 520.167969 381.679688 520.167969 M 423.976562 279.046875 L 423.976562 86.832031 C 423.976562 78.539062 417.191406 71.742188 408.882812 71.742188 L 356.082031 71.742188 C 347.785156 71.742188 340.988281 78.523438 340.988281 86.832031 L 340.988281 279.03125 C 282.777344 296.773438 240.421875 350.90625 240.421875 414.914062 C 240.421875 493.367188 304.011719 556.957031 382.464844 556.957031 C 460.917969 556.957031 524.511719 493.367188 524.511719 414.914062 C 524.511719 350.886719 482.160156 296.757812 423.941406 279.03125 " clip-rule="nonzero"/></clipPath></defs><g clip-path="url(#64bf896e9b)"><rect x="-76.8" width="921.6" fill="#ffffff" y="-76.799999" height="921.599993" fill-opacity="1"/></g><g clip-path="url(#312f1b8324)"><g clip-path="url(#6a50ee67e7)"><rect x="-76.8" width="921.6" fill="#ffffff" y="-76.799999" height="921.599993" fill-opacity="1"/></g></g><g clip-path="url(#de6b765706)"><g clip-path="url(#2e43f3b074)"><rect x="-76.8" width="921.6" fill="#ffffff" y="-76.799999" height="921.599993" fill-opacity="1"/></g></g></svg>