<svg xmlns="http://www.w3.org/2000/svg" xmlns:xlink="http://www.w3.org/1999/xlink" width="1080" zoomAndPan="magnify" viewBox="0 0 810 809.999993" height="1080" preserveAspectRatio="xMidYMid meet" version="1.0"><defs><clipPath id="daec75f24b"><path d="M 7.429688 9.6875 L 803 9.6875 L 803 800.3125 L 7.429688 800.3125 Z M 7.429688 9.6875 " clip-rule="nonzero"/></clipPath><clipPath id="5d328adf96"><path d="M 37.359375 26.78125 C 30.28125 26.78125 24.527344 32.539062 24.527344 39.632812 L 24.527344 770.382812 C 24.527344 777.449219 30.265625 783.21875 37.359375 783.21875 L 772.632812 783.21875 C 779.710938 783.21875 785.46875 777.449219 785.46875 770.382812 L 785.46875 39.632812 C 785.46875 32.554688 779.726562 26.78125 772.632812 26.78125 Z M 772.632812 800.308594 L 37.359375 800.308594 C 20.867188 800.308594 7.4375 786.890625 7.4375 770.382812 L 7.4375 39.632812 C 7.4375 23.125 20.867188 9.695312 37.359375 9.695312 L 772.632812 9.695312 C 789.15625 9.695312 802.554688 23.125 802.554688 39.632812 L 802.554688 770.382812 C 802.554688 786.890625 789.15625 800.308594 772.632812 800.308594 " clip-rule="nonzero"/></clipPath><clipPath id="0af897318e"><path d="M 135.238281 177 L 670 177 L 670 700 L 135.238281 700 Z M 135.238281 177 " clip-rule="nonzero"/></clipPath><clipPath id="f72c842495"><path d="M 482.296875 178.277344 L 482.296875 255.839844 C 550.265625 286.671875 597.535156 355.132812 597.535156 434.613281 C 597.535156 542.960938 509.695312 630.816406 401.332031 630.816406 C 292.964844 630.816406 205.140625 542.960938 205.140625 434.613281 C 205.140625 353.019531 254.949219 283.042969 325.835938 253.460938 L 325.835938 177.519531 C 216 210.582031 135.996094 312.507812 135.996094 433.09375 C 135.996094 580.472656 255.472656 699.960938 402.863281 699.960938 C 550.253906 699.960938 669.710938 580.484375 669.710938 433.09375 C 669.710938 313.382812 590.886719 212.085938 482.296875 178.261719 " clip-rule="nonzero"/></clipPath><clipPath id="2b54840491"><path d="M 266.019531 103 L 542 103 L 542 571.445312 L 266.019531 571.445312 Z M 266.019531 103 " clip-rule="nonzero"/></clipPath><clipPath id="cd3b486046"><path d="M 403.292969 535.867188 C 347.625 535.867188 302.515625 490.757812 302.515625 435.089844 C 302.515625 393.355469 327.871094 357.554688 364.042969 342.253906 L 364.042969 418.550781 C 364.042969 426.550781 370.585938 433.109375 378.605469 433.109375 L 429.542969 433.109375 C 437.546875 433.109375 444.105469 426.566406 444.105469 418.550781 L 444.105469 342.921875 C 479.425781 358.582031 504.070312 393.949219 504.070312 435.089844 C 504.070312 490.757812 458.949219 535.867188 403.292969 535.867188 M 444.105469 303.195312 L 444.105469 117.714844 C 444.105469 109.714844 437.558594 103.15625 429.542969 103.15625 L 378.589844 103.15625 C 370.585938 103.15625 364.027344 109.699219 364.027344 117.714844 L 364.027344 303.179688 C 307.855469 320.300781 266.984375 372.535156 266.984375 434.300781 C 266.984375 510.003906 328.347656 571.367188 404.050781 571.367188 C 479.753906 571.367188 541.121094 510.003906 541.121094 434.300781 C 541.121094 372.519531 500.25 320.285156 444.074219 303.179688 " clip-rule="nonzero"/></clipPath></defs><g clip-path="url(#daec75f24b)"><g clip-path="url(#5d328adf96)"><path fill="#002f6d" d="M 0 2.257812 L 809.941406 2.257812 L 809.941406 807.742188 L 0 807.742188 Z M 0 2.257812 " fill-opacity="1" fill-rule="nonzero"/></g></g><g clip-path="url(#0af897318e)"><g clip-path="url(#f72c842495)"><path fill="#002f6d" d="M 0 2.257812 L 809.941406 2.257812 L 809.941406 807.742188 L 0 807.742188 Z M 0 2.257812 " fill-opacity="1" fill-rule="nonzero"/></g></g><g clip-path="url(#2b54840491)"><g clip-path="url(#cd3b486046)"><path fill="#002f6d" d="M 0 2.257812 L 809.941406 2.257812 L 809.941406 807.742188 L 0 807.742188 Z M 0 2.257812 " fill-opacity="1" fill-rule="nonzero"/></g></g></svg>