<svg xmlns="http://www.w3.org/2000/svg" xmlns:xlink="http://www.w3.org/1999/xlink" width="1024" zoomAndPan="magnify" viewBox="0 0 768 767.999994" height="1024" preserveAspectRatio="xMidYMid meet" version="1.0"><defs><clipPath id="45e06994c1"><path d="M 2.460938 -9.640625 C -4.898438 -9.640625 -10.871094 -3.65625 -10.871094 3.707031 L -10.871094 763.183594 C -10.871094 770.515625 -4.898438 776.515625 2.460938 776.515625 L 766.632812 776.515625 C 773.992188 776.515625 779.964844 770.515625 779.964844 763.183594 L 779.964844 3.707031 C 779.964844 -3.65625 773.992188 -9.640625 766.632812 -9.640625 Z M 766.632812 794.292969 L 2.460938 794.292969 C -14.683594 794.292969 -28.648438 780.34375 -28.648438 763.183594 L -28.648438 3.707031 C -28.648438 -13.453125 -14.683594 -27.402344 2.460938 -27.402344 L 766.632812 -27.402344 C 783.804688 -27.402344 797.738281 -13.453125 797.738281 3.707031 L 797.738281 763.183594 C 797.738281 780.34375 783.804688 794.292969 766.632812 794.292969 " clip-rule="nonzero"/></clipPath><clipPath id="6c03e28dc9"><path d="M 376.804688 56.070312 L 688 56.070312 L 688 367.257812 L 376.804688 367.257812 Z M 376.804688 56.070312 " clip-rule="nonzero"/></clipPath><clipPath id="1498193750"><path d="M 531.214844 256.769531 C 506.804688 256.769531 487.023438 236.992188 487.023438 212.582031 C 487.023438 188.167969 506.804688 168.390625 531.214844 168.390625 C 555.625 168.390625 575.410156 188.167969 575.410156 212.582031 C 575.410156 236.992188 555.625 256.769531 531.214844 256.769531 M 621.574219 162.972656 L 653.332031 114.925781 L 632.542969 94.1875 L 585.574219 125.324219 C 577.660156 120.386719 569.035156 116.066406 559.882812 113.410156 L 548.4375 56.460938 L 519.117188 56.460938 L 507.960938 112.039062 C 498.628906 114.199219 489.785156 117.746094 481.609375 122.253906 L 433.558594 90.480469 L 412.824219 111.25 L 443.976562 158.222656 C 439.035156 166.136719 435.613281 174.761719 432.976562 183.925781 L 376.914062 195.375 L 376.914062 224.695312 L 431.597656 235.851562 C 433.757812 245.183594 436.875 254.027344 441.367188 262.191406 L 409.351562 310.238281 L 430.011719 330.960938 L 476.917969 299.808594 C 484.832031 304.742188 493.425781 308.261719 502.578125 310.929688 L 513.996094 367.097656 L 543.3125 367.097656 L 554.46875 312.304688 C 563.800781 310.144531 572.644531 306.980469 580.824219 302.472656 L 628.871094 334.460938 L 649.59375 313.785156 L 618.441406 266.878906 C 623.378906 258.960938 627.808594 250.367188 630.445312 241.203125 L 687.503906 229.785156 L 687.503906 200.464844 L 631.816406 189.3125 C 629.660156 179.976562 626.050781 171.136719 621.542969 162.960938 " clip-rule="nonzero"/></clipPath><clipPath id="d8e0a57285"><path d="M 73.09375 162 L 415.347656 162 L 415.347656 504 L 73.09375 504 Z M 73.09375 162 " clip-rule="nonzero"/></clipPath><clipPath id="86f7aa7424"><path d="M 265.496094 378.515625 C 240.238281 390.148438 210.332031 379.101562 198.699219 353.859375 C 187.0625 328.613281 198.113281 298.695312 223.355469 287.058594 C 248.601562 275.429688 278.519531 286.476562 290.152344 311.734375 C 301.785156 336.992188 290.738281 366.910156 265.496094 378.527344 M 331.011719 487.808594 L 316.246094 425.359375 C 324.871094 418.679688 332.417969 410.980469 338.726562 402.414062 L 403.640625 412.507812 L 415.195312 381.183594 L 360.589844 347.457031 C 361.933594 336.902344 361.886719 326.128906 360.25 315.390625 L 413.347656 276.570312 L 399.378906 246.246094 L 336.96875 261 C 330.285156 252.375 322.585938 244.816406 314.039062 238.519531 L 324.128906 173.605469 L 292.804688 162.035156 L 259.078125 216.640625 C 248.523438 215.296875 237.785156 215.375 227.027344 216.992188 L 188.238281 163.929688 L 157.917969 177.894531 L 172.652344 240.292969 C 164.027344 246.972656 156.464844 254.660156 150.15625 263.203125 L 85.226562 253.117188 L 73.667969 284.4375 L 128.273438 318.152344 C 126.933594 328.707031 126.980469 339.460938 128.601562 350.214844 L 75.507812 389.023438 L 89.46875 419.34375 L 151.886719 404.589844 C 158.5625 413.21875 166.265625 420.777344 174.816406 427.074219 L 164.722656 491.988281 L 196.042969 503.558594 L 229.757812 448.953125 C 240.3125 450.296875 251.085938 450.261719 261.839844 448.644531 L 300.644531 501.757812 Z M 331.011719 487.808594 " clip-rule="nonzero"/></clipPath><clipPath id="a03d92cd8a"><path d="M 352.328125 362 L 695.929688 362 L 695.929688 705.621094 L 352.328125 705.621094 Z M 352.328125 362 " clip-rule="nonzero"/></clipPath><clipPath id="a5d4947a9e"><path d="M 542.664062 580.554688 C 516.820312 590.816406 487.550781 578.179688 477.285156 552.320312 C 467.027344 526.460938 479.664062 497.203125 505.507812 486.941406 C 531.351562 476.679688 560.625 489.316406 570.886719 515.160156 C 581.148438 541.007812 568.511719 570.28125 542.664062 580.539062 M 602.195312 693.179688 L 590.808594 630.039062 C 599.769531 623.835938 607.730469 616.539062 614.492188 608.34375 L 678.773438 621.90625 L 692.011719 591.246094 L 639.304688 554.632812 C 641.214844 544.171875 641.738281 533.417969 640.691406 522.597656 L 695.789062 486.710938 L 683.476562 455.679688 L 620.351562 467.054688 C 614.148438 458.085938 606.867188 450.109375 598.675781 443.367188 L 612.253906 379.085938 L 581.59375 365.847656 L 544.976562 418.558594 C 534.519531 416.640625 523.777344 416.148438 512.945312 417.179688 L 477.070312 362.109375 L 446.042969 374.425781 L 457.398438 437.546875 C 448.433594 443.75 440.457031 451.023438 433.695312 459.214844 L 369.417969 445.636719 L 356.175781 476.292969 L 408.886719 512.894531 C 406.972656 523.359375 406.449219 534.113281 407.484375 544.925781 L 352.382812 580.820312 L 364.695312 611.847656 L 427.820312 600.476562 C 434.023438 609.4375 441.304688 617.417969 449.496094 624.160156 L 435.921875 688.441406 L 466.582031 701.679688 L 503.195312 648.972656 C 513.65625 650.882812 524.410156 651.441406 535.242188 650.394531 L 571.132812 705.523438 Z M 602.195312 693.179688 " clip-rule="nonzero"/></clipPath></defs><g clip-path="url(#45e06994c1)"><rect x="-76.8" width="921.6" fill="#ffffff" y="-76.799999" height="921.599993" fill-opacity="1"/></g><g clip-path="url(#6c03e28dc9)"><g clip-path="url(#1498193750)"><rect x="-76.8" width="921.6" fill="#ffffff" y="-76.799999" height="921.599993" fill-opacity="1"/></g></g><g clip-path="url(#d8e0a57285)"><g clip-path="url(#86f7aa7424)"><rect x="-76.8" width="921.6" fill="#ffffff" y="-76.799999" height="921.599993" fill-opacity="1"/></g></g><g clip-path="url(#a03d92cd8a)"><g clip-path="url(#a5d4947a9e)"><rect x="-76.8" width="921.6" fill="#ffffff" y="-76.799999" height="921.599993" fill-opacity="1"/></g></g></svg>