<svg xmlns="http://www.w3.org/2000/svg" xmlns:xlink="http://www.w3.org/1999/xlink" width="1080" zoomAndPan="magnify" viewBox="0 0 810 809.999993" height="1080" preserveAspectRatio="xMidYMid meet" version="1.0"><defs><clipPath id="135b76ec40"><path d="M 7.417969 9.675781 L 803 9.675781 L 803 800.324219 L 7.417969 800.324219 Z M 7.417969 9.675781 " clip-rule="nonzero"/></clipPath><clipPath id="faa3ac94b9"><path d="M 37.355469 26.769531 C 30.273438 26.769531 24.527344 32.53125 24.527344 39.613281 L 24.527344 770.386719 C 24.527344 777.441406 30.273438 783.214844 37.355469 783.214844 L 772.644531 783.214844 C 779.726562 783.214844 785.472656 777.441406 785.472656 770.386719 L 785.472656 39.613281 C 785.472656 32.53125 779.726562 26.769531 772.644531 26.769531 Z M 772.644531 800.320312 L 37.355469 800.320312 C 20.859375 800.320312 7.421875 786.898438 7.421875 770.386719 L 7.421875 39.613281 C 7.421875 23.101562 20.859375 9.679688 37.355469 9.679688 L 772.644531 9.679688 C 789.167969 9.679688 802.574219 23.101562 802.574219 39.613281 L 802.574219 770.386719 C 802.574219 786.898438 789.167969 800.320312 772.644531 800.320312 " clip-rule="nonzero"/></clipPath><clipPath id="a6b32ce284"><path d="M 397.550781 90 L 697 90 L 697 389.425781 L 397.550781 389.425781 Z M 397.550781 90 " clip-rule="nonzero"/></clipPath><clipPath id="edc3b0ac5b"><path d="M 546.125 283.113281 C 522.636719 283.113281 503.605469 264.082031 503.605469 240.59375 C 503.605469 217.105469 522.636719 198.074219 546.125 198.074219 C 569.613281 198.074219 588.648438 217.105469 588.648438 240.59375 C 588.648438 264.082031 569.613281 283.113281 546.125 283.113281 M 633.070312 192.859375 L 663.625 146.628906 L 643.625 126.675781 L 598.429688 156.636719 C 590.816406 151.882812 582.515625 147.726562 573.710938 145.171875 L 562.695312 90.375 L 534.484375 90.375 L 523.75 143.851562 C 514.769531 145.929688 506.261719 149.34375 498.394531 153.679688 L 452.160156 123.109375 L 432.207031 143.09375 L 462.183594 188.289062 C 457.429688 195.90625 454.136719 204.203125 451.597656 213.023438 L 397.65625 224.039062 L 397.65625 252.25 L 450.273438 262.984375 C 452.351562 271.964844 455.351562 280.472656 459.671875 288.328125 L 428.867188 334.558594 L 448.746094 354.5 L 493.878906 324.523438 C 501.496094 329.273438 509.765625 332.660156 518.570312 335.226562 L 529.558594 389.269531 L 557.765625 389.269531 L 568.5 336.546875 C 577.480469 334.46875 585.988281 331.425781 593.859375 327.089844 L 640.089844 357.867188 L 660.03125 337.972656 L 630.054688 292.839844 C 634.804688 285.222656 639.066406 276.953125 641.605469 268.132812 L 696.507812 257.148438 L 696.507812 228.9375 L 642.925781 218.203125 C 640.847656 209.222656 637.375 200.714844 633.039062 192.847656 " clip-rule="nonzero"/></clipPath><clipPath id="846cdfdb3d"><path d="M 105.320312 191 L 434.636719 191 L 434.636719 521 L 105.320312 521 Z M 105.320312 191 " clip-rule="nonzero"/></clipPath><clipPath id="889c6724a3"><path d="M 290.449219 400.257812 C 266.144531 411.449219 237.371094 400.820312 226.175781 376.53125 C 214.980469 352.242188 225.613281 323.453125 249.902344 312.257812 C 274.191406 301.066406 302.980469 311.695312 314.171875 336 C 325.367188 360.304688 314.738281 389.089844 290.449219 400.269531 M 353.488281 505.417969 L 339.28125 445.332031 C 347.578125 438.902344 354.839844 431.496094 360.910156 423.253906 L 423.371094 432.964844 L 434.492188 402.824219 L 381.949219 370.371094 C 383.242188 360.214844 383.195312 349.851562 381.621094 339.519531 L 432.710938 302.164062 L 419.273438 272.988281 L 359.21875 287.183594 C 352.789062 278.882812 345.382812 271.609375 337.15625 265.550781 L 346.867188 203.089844 L 316.726562 191.957031 L 284.273438 244.5 C 274.117188 243.207031 263.785156 243.28125 253.433594 244.839844 L 216.109375 193.78125 L 186.9375 207.21875 L 201.113281 267.257812 C 192.816406 273.6875 185.539062 281.082031 179.46875 289.304688 L 116.992188 279.597656 L 105.871094 309.734375 L 158.414062 342.175781 C 157.125 352.332031 157.167969 362.679688 158.726562 373.027344 L 107.640625 410.367188 L 121.074219 439.542969 L 181.132812 425.347656 C 187.558594 433.648438 194.96875 440.921875 203.195312 446.980469 L 193.484375 509.441406 L 223.621094 520.574219 L 256.0625 468.03125 C 266.21875 469.324219 276.582031 469.292969 286.929688 467.734375 L 324.269531 518.839844 Z M 353.488281 505.417969 " clip-rule="nonzero"/></clipPath><clipPath id="71b7d9a1bb"><path d="M 374 384 L 704.613281 384 L 704.613281 715 L 374 715 Z M 374 384 " clip-rule="nonzero"/></clipPath><clipPath id="5738817382"><path d="M 557.140625 594.660156 C 532.273438 604.535156 504.109375 592.375 494.234375 567.492188 C 484.363281 542.609375 496.523438 514.457031 521.390625 504.585938 C 546.257812 494.710938 574.421875 506.871094 584.296875 531.738281 C 594.171875 556.609375 582.011719 584.773438 557.140625 594.644531 M 614.421875 703.027344 L 603.464844 642.273438 C 612.089844 636.304688 619.75 629.285156 626.253906 621.398438 L 688.105469 634.449219 L 700.84375 604.949219 L 650.128906 569.71875 C 651.96875 559.652344 652.472656 549.304688 651.464844 538.894531 L 704.480469 504.363281 L 692.632812 474.503906 L 631.894531 485.449219 C 625.925781 476.820312 618.917969 469.144531 611.035156 462.65625 L 624.101562 400.804688 L 594.601562 388.066406 L 559.367188 438.785156 C 549.304688 436.941406 538.96875 436.46875 528.546875 437.460938 L 494.027344 384.472656 L 464.171875 396.320312 L 475.097656 457.058594 C 466.472656 463.027344 458.796875 470.023438 452.292969 477.90625 L 390.441406 464.839844 L 377.703125 494.339844 L 428.421875 529.558594 C 426.578125 539.625 426.074219 549.972656 427.070312 560.378906 L 374.050781 594.914062 L 385.898438 624.769531 L 446.636719 613.828125 C 452.605469 622.453125 459.613281 630.128906 467.496094 636.617188 L 454.433594 698.46875 L 483.933594 711.207031 L 519.164062 660.492188 C 529.230469 662.332031 539.578125 662.867188 550 661.859375 L 584.535156 714.90625 Z M 614.421875 703.027344 " clip-rule="nonzero"/></clipPath></defs><g clip-path="url(#135b76ec40)"><g clip-path="url(#faa3ac94b9)"><path fill="#002f6d" d="M 0 2.257812 L 809.933594 2.257812 L 809.933594 807.742188 L 0 807.742188 Z M 0 2.257812 " fill-opacity="1" fill-rule="nonzero"/></g></g><g clip-path="url(#a6b32ce284)"><g clip-path="url(#edc3b0ac5b)"><path fill="#002f6d" d="M 0 2.257812 L 809.933594 2.257812 L 809.933594 807.742188 L 0 807.742188 Z M 0 2.257812 " fill-opacity="1" fill-rule="nonzero"/></g></g><g clip-path="url(#846cdfdb3d)"><g clip-path="url(#889c6724a3)"><path fill="#002f6d" d="M 0 2.257812 L 809.933594 2.257812 L 809.933594 807.742188 L 0 807.742188 Z M 0 2.257812 " fill-opacity="1" fill-rule="nonzero"/></g></g><g clip-path="url(#71b7d9a1bb)"><g clip-path="url(#5738817382)"><path fill="#002f6d" d="M 0 2.257812 L 809.933594 2.257812 L 809.933594 807.742188 L 0 807.742188 Z M 0 2.257812 " fill-opacity="1" fill-rule="nonzero"/></g></g></svg>